#!OML:ASF F:\VICON\USERDATA\INSTALL\rory3\rory3.ASF
:FULLY-SPECIFIED
:DEGREES
422
root -16.1351 17.3224 17.5443 -8.54526 -44.1076 11.4742
lowerback 7.01412 -0.123157 -6.81412
upperback 1.87352 -0.71179 -1.40424
thorax -1.92763 -0.351222 2.43183
lowerneck -21.1244 -4.3817 -7.9908
upperneck 25.0638 -5.59728 6.81318
head 12.2099 -2.4254 2.97082
rclavicle -7.51406e-014 2.34566e-014
rhumerus -36.6307 -5.75416 -80.6472
rradius 31.8545
rwrist 5.1294
rhand -14.9977 11.7323
rfingers 7.12502
rthumb 11.1669 -17.9505
lclavicle -7.51406e-014 2.34566e-014
lhumerus -25.4306 -11.7488 82.9042
lradius 36.6878
lwrist -5.39245
lhand -14.6467 24.1493
lfingers 7.12502
lthumb 11.5055 53.8136
rfemur -30.4942 -3.33213 13.6586
rtibia 19.5981
rfoot -7.1065 -8.34704
rtoes -27.643
lfemur 16.4981 0.869112 -31.2865
ltibia 10.7369
lfoot -12.1514 -8.83264
ltoes -9.14167
423
root -16.2765 17.3247 17.6556 -8.64339 -43.8733 11.4584
lowerback 7.08882 -0.323416 -7.13139
upperback 1.82858 -1.00079 -1.14289
thorax -1.97809 -0.49067 2.90523
lowerneck -21.0197 -4.19989 -8.04982
upperneck 25.0709 -5.23473 6.51336
head 12.1512 -2.3111 2.92944
rclavicle 5.92875e-014 3.18055e-015
rhumerus -36.4515 -5.25919 -80.4844
rradius 31.3841
rwrist 5.26436
rhand -14.8775 11.6224
rfingers 7.12502
rthumb 11.2829 -18.0541
lclavicle 5.92875e-014 3.18055e-015
lhumerus -25.7927 -11.1202 83.2205
lradius 36.772
lwrist -5.23329
lhand -14.9376 23.824
lfingers 7.12502
lthumb 11.225 53.5037
rfemur -30.2439 -3.67783 13.8882
rtibia 19.9427
rfoot -6.76771 -7.13626
rtoes -30.6731
lfemur 17.3801 0.346262 -31.2971
ltibia 10.4629
lfoot -11.5351 -9.01587
ltoes -8.40657
424
root -16.42 17.3134 17.7646 -8.50139 -43.5663 11.2979
lowerback 7.16489 -0.672506 -7.73271
upperback 1.62336 -1.50545 -0.570692
thorax -2.14917 -0.725722 3.88213
lowerneck -20.9187 -3.88958 -8.38206
upperneck 25.2819 -4.57449 6.10504
head 12.1535 -2.10719 2.94657
rclavicle -1.09481e-013 -1.47101e-014
rhumerus -36.2141 -4.01268 -80.1764
rradius 30.646
rwrist 5.20405
rhand -14.8507 11.843
rfingers 7.12502
rthumb 11.3087 -17.8321
lclavicle -1.09481e-013 -1.47101e-014
lhumerus -26.4377 -9.77342 83.7728
lradius 36.8586
lwrist -5.28031
lhand -15.406 23.4914
lfingers 7.12502
lthumb 10.7731 53.1951
rfemur -29.6013 -2.92541 13.6026
rtibia 20.1024
rfoot -7.20477 -6.21095
rtoes -28.0232
lfemur 17.9805 -0.182577 -31.171
ltibia 10.4315
lfoot -10.9698 -9.22449
ltoes -8.28624
425
root -16.5698 17.3099 17.8783 -8.20435 -43.1989 10.9461
lowerback 7.09796 -0.932873 -7.933
upperback 1.49506 -1.85229 -0.184553
thorax -2.18248 -0.890686 4.42565
lowerneck -20.8535 -3.72845 -8.55236
upperneck 25.4463 -4.22036 5.8372
head 12.1721 -2.00503 2.93614
rclavicle 4.63665e-014 1.51076e-014
rhumerus -36.0272 -3.33205 -80.0083
rradius 30.0722
rwrist 5.01049
rhand -14.9271 11.8317
rfingers 7.12502
rthumb 11.235 -17.8474
lclavicle 4.63665e-014 1.51076e-014
lhumerus -26.8438 -9.0596 84.1467
lradius 36.8547
lwrist -5.28777
lhand -16.0715 22.9602
lfingers 7.12502
lthumb 10.1312 52.6963
rfemur -28.9522 -2.3744 13.5783
rtibia 20.0941
rfoot -7.28866 -5.28072
rtoes -26.8277
lfemur 18.4422 -0.677641 -30.8454
ltibia 10.6496
lfoot -10.315 -9.58821
ltoes -7.39007
426
root -16.7218 17.3098 17.9958 -7.67844 -42.7561 10.3539
lowerback 6.80565 -1.13039 -7.57795
upperback 1.47093 -2.05832 -0.0494242
thorax -2.02463 -0.999772 4.37442
lowerneck -20.8024 -3.73236 -8.58754
upperneck 25.4622 -4.2224 5.8449
head 12.1695 -2.00971 2.94519
rclavicle -4.83047e-014 1.98785e-014
rhumerus -35.9939 -3.39743 -80.0012
rradius 29.8478
rwrist 5.03557
rhand -14.8968 11.7719
rfingers 7.12502
rthumb 11.2643 -17.9056
lclavicle -4.83047e-014 1.98785e-014
lhumerus -27.0318 -9.02027 84.2825
lradius 36.8436
lwrist -5.17106
lhand -16.4101 22.5817
lfingers 7.12502
lthumb 9.80451 52.3334
rfemur -28.5076 -2.29084 13.9692
rtibia 20.1607
rfoot -6.6667 -4.48934
rtoes -28.2299
lfemur 18.9449 -1.34469 -30.3824
ltibia 10.7118
lfoot -9.43939 -9.82722
ltoes -7.43362
427
root -16.8712 17.3132 18.1114 -6.93241 -42.3591 9.52989
lowerback 6.46255 -1.32716 -6.98315
upperback 1.45351 -2.24598 0.0758085
thorax -1.84529 -1.10129 4.17297
lowerneck -20.8655 -3.74593 -8.52372
upperneck 25.5358 -4.28816 5.92822
head 12.2169 -2.02182 2.95631
rclavicle 8.57259e-014 1.90833e-014
rhumerus -36.3177 -3.53934 -79.9972
rradius 29.968
rwrist 5.12944
rhand -14.9045 11.8991
rfingers 7.12502
rthumb 11.2569 -17.7788
lclavicle 8.57259e-014 1.90833e-014
lhumerus -27.1882 -8.90632 84.341
lradius 36.8001
lwrist -5.22968
lhand -16.5046 22.876
lfingers 7.12502
lthumb 9.71337 52.632
rfemur -28.3692 -3.03368 15.0056
rtibia 20.3223
rfoot -4.85616 -3.20261
rtoes -34.2966
lfemur 19.5714 -2.06568 -29.769
ltibia 10.3485
lfoot -8.45119 -9.82595
ltoes -10.5655
428
root -17.027 17.358 18.2253 -6.2859 -42.1068 9.07972
lowerback 6.04464 -1.4857 -6.80295
upperback 1.33502 -2.41139 0.216219
thorax -1.71612 -1.18511 4.21603
lowerneck -21.0687 -3.7052 -8.29533
upperneck 25.7403 -4.2572 5.77618
head 12.3255 -2.00456 2.86732
rclavicle -1.25234e-014 -2.38542e-015
rhumerus -36.6078 -3.41548 -79.9919
rradius 29.9956
rwrist 5.00139
rhand -15.0268 11.8573
rfingers 7.12502
rthumb 11.139 -17.8271
lclavicle -1.25234e-014 -2.38542e-015
lhumerus -27.449 -8.47021 84.4481
lradius 36.7673
lwrist -5.46775
lhand -16.7344 23.5718
lfingers 7.12502
lthumb 9.49166 53.338
rfemur -28.269 -1.8452 14.8149
rtibia 20.7121
rfoot -3.25631 -3.05532
rtoes -27.9412
lfemur 20.1304 -2.86612 -29.4827
ltibia 9.60199
lfoot -7.27047 -9.67311
ltoes -14.4522
429
root -17.1873 17.3874 18.3426 -6.00734 -41.9015 9.11452
lowerback 5.58858 -1.40058 -6.70818
upperback 1.22777 -2.2634 0.0654119
thorax -1.60077 -1.11246 3.9827
lowerneck -20.9863 -3.83661 -8.03059
upperneck 25.803 -4.52765 5.69688
head 12.3474 -2.11097 2.74708
rclavicle -1.18277e-013 8.74653e-015
rhumerus -36.8421 -4.09074 -79.9544
rradius 29.7934
rwrist 4.79201
rhand -15.0466 11.9579
rfingers 7.12502
rthumb 11.1198 -17.7275
lclavicle -1.18277e-013 8.74653e-015
lhumerus -27.6602 -9.12472 84.6221
lradius 36.8065
lwrist -5.2266
lhand -16.9984 23.8322
lfingers 7.12502
lthumb 9.23685 53.6099
rfemur -28.6069 -1.8058 14.9159
rtibia 21.212
rfoot -1.2846 -2.3776
rtoes -29.7605
lfemur 20.8722 -3.55824 -29.5938
ltibia 8.55461
lfoot -5.81048 -9.60716
ltoes -16.549
430
root -17.3422 17.4195 18.4606 -5.57895 -41.9098 8.68561
lowerback 5.16343 -1.01769 -5.77217
upperback 1.27187 -1.67756 -0.325826
thorax -1.42655 -0.829503 3.00518
lowerneck -20.917 -4.21597 -7.6203
upperneck 25.8452 -5.29372 5.91196
head 12.4081 -2.38289 2.62924
rclavicle -4.48259e-014 -1.66979e-014
rhumerus -37.117 -6.0481 -79.8461
rradius 29.5526
rwrist 4.96458
rhand -14.7512 11.9581
rfingers 7.12502
rthumb 11.4047 -17.7117
lclavicle -4.48259e-014 -1.66979e-014
lhumerus -27.4933 -11.0433 84.6997
lradius 36.6378
lwrist -4.65182
lhand -17.1315 23.7463
lfingers 7.12502
lthumb 9.1085 53.5296
rfemur -28.3608 -0.709688 14.8584
rtibia 21.8173
rfoot -0.460729 -2.50854
rtoes -22.95
lfemur 21.7326 -4.04739 -29.3484
ltibia 7.5993
lfoot -4.30542 -9.55905
ltoes -18.359
431
root -17.4909 17.4451 18.5852 -4.92032 -42.1333 7.7159
lowerback 4.91094 -0.737694 -4.64399
upperback 1.34547 -1.2298 -0.392316
thorax -1.27829 -0.613051 2.27288
lowerneck -21.192 -4.45921 -7.29693
upperneck 26.129 -5.7724 5.96222
head 12.6071 -2.55123 2.51158
rclavicle -5.46161e-014 1.31198e-014
rhumerus -37.2452 -7.44386 -79.6322
rradius 29.2928
rwrist 5.35249
rhand -14.5441 11.7721
rfingers 7.12502
rthumb 11.6045 -17.8866
lclavicle -5.46161e-014 1.31198e-014
lhumerus -27.3375 -12.1501 84.8309
lradius 36.2866
lwrist -4.47236
lhand -17.2101 23.7514
lfingers 7.12502
lthumb 9.03259 53.5381
rfemur -28.1717 -0.872452 15.937
rtibia 22.2458
rfoot 0.625908 -1.67015
rtoes -24.707
lfemur 22.2997 -4.33234 -28.7005
ltibia 7.63682
lfoot -3.36218 -9.47983
ltoes -21.5846
432
root -17.6351 17.4546 18.704 -4.36479 -42.2596 6.89125
lowerback 4.84908 -0.701518 -3.99368
upperback 1.27597 -1.14275 -0.162659
thorax -1.33029 -0.567734 2.1397
lowerneck -21.2104 -4.52557 -7.4762
upperneck 26.3193 -5.82917 5.99984
head 12.6999 -2.59024 2.54874
rclavicle -4.69132e-014 1.23246e-014
rhumerus -37.285 -8.00401 -79.254
rradius 28.8502
rwrist 5.78951
rhand -15.0152 12.0476
rfingers 7.12502
rthumb 11.1501 -17.6361
lclavicle -4.69132e-014 1.23246e-014
lhumerus -27.5847 -12.0174 85.174
lradius 35.9202
lwrist -4.85613
lhand -17.6181 23.6925
lfingers 7.12502
lthumb 8.63894 53.4958
rfemur -27.6019 -0.651939 16.5924
rtibia 22.5627
rfoot 1.02738 -2.14875
rtoes -21.2466
lfemur 22.3872 -4.69946 -28.1582
ltibia 8.59398
lfoot -2.46389 -9.45462
ltoes -23.1683
433
root -17.7774 17.4782 18.8211 -3.83875 -42.4067 6.06149
lowerback 4.8951 -0.727185 -3.38921
upperback 1.16098 -1.14438 0.145447
thorax -1.48012 -0.564822 2.11993
lowerneck -21.0254 -4.50876 -7.74869
upperneck 26.3617 -5.70872 5.94175
head 12.6771 -2.57716 2.59601
rclavicle -4.25399e-014 -4.77083e-015
rhumerus -37.3151 -8.437 -78.8093
rradius 28.3038
rwrist 6.29787
rhand -15.3341 12.3486
rfingers 7.12502
rthumb 10.8425 -17.3516
lclavicle -4.25399e-014 -4.77083e-015
lhumerus -28.0613 -11.389 85.5658
lradius 35.6782
lwrist -5.30148
lhand -18.0083 23.4006
lfingers 7.12502
lthumb 8.26236 53.219
rfemur -27.0438 -1.01986 17.5158
rtibia 22.7827
rfoot 0.985039 -2.01779
rtoes -21.6188
lfemur 22.1632 -5.03884 -27.6028
ltibia 10.0817
lfoot -1.28299 -9.27439
ltoes -22.5197
434
root -17.9162 17.5079 18.9342 -3.38293 -42.6369 5.3214
lowerback 5.20183 -0.864494 -3.16248
upperback 0.976428 -1.31846 0.637723
thorax -1.82421 -0.643064 2.51861
lowerneck -21.1759 -4.27231 -7.82622
upperneck 26.6129 -5.22968 5.57906
head 12.7593 -2.42169 2.55533
rclavicle -4.08006e-014 -4.77083e-015
rhumerus -37.2517 -7.53542 -78.7213
rradius 27.9186
rwrist 5.87236
rhand -15.2536 12.1576
rfingers 7.12502
rthumb 10.9201 -17.5384
lclavicle -4.08006e-014 -4.77083e-015
lhumerus -28.732 -9.93105 85.9316
lradius 35.6179
lwrist -5.86999
lhand -17.6596 23.2752
lfingers 7.12502
lthumb 8.5988 53.08
rfemur -26.6762 -1.77605 18.594
rtibia 23.0888
rfoot 0.635342 -0.961703
rtoes -22.9781
lfemur 21.7442 -5.37734 -27.1435
ltibia 11.827
lfoot 0.216404 -9.01707
ltoes -21.0156
435
root -18.0546 17.5352 19.0483 -3.34644 -42.8633 5.16848
lowerback 5.69868 -1.09353 -3.66551
upperback 0.668731 -1.65968 1.20894
thorax -2.36514 -0.792344 3.43241
lowerneck -21.2859 -3.94503 -8.09474
upperneck 26.9669 -4.55741 5.21153
head 12.8674 -2.20637 2.58088
rclavicle -7.37988e-014 2.46493e-014
rhumerus -37.2224 -6.44209 -78.3594
rradius 27.402
rwrist 5.81229
rhand -15.3691 12.0059
rfingers 7.12502
rthumb 10.8088 -17.696
lclavicle -7.37988e-014 2.46493e-014
lhumerus -29.6055 -8.01192 86.3417
lradius 35.4932
lwrist -6.52151
lhand -17.1568 23.2119
lfingers 7.12502
lthumb 9.08405 52.9962
rfemur -26.4778 -3.06026 19.4258
rtibia 23.4532
rfoot -0.239867 0.681072
rtoes -27.8413
lfemur 21.2975 -5.73659 -27.192
ltibia 13.5239
lfoot 2.0349 -8.84189
ltoes -19.0123
436
root -18.1938 17.5633 19.1609 -3.34305 -43.0561 5.05803
lowerback 5.82071 -0.943267 -3.49132
upperback 0.613227 -1.45317 1.20625
thorax -2.51289 -0.686759 3.32055
lowerneck -21.2741 -4.02903 -8.17187
upperneck 27.0492 -4.69871 5.34045
head 12.9162 -2.26055 2.62065
rclavicle -1.1937e-013 -1.27222e-014
rhumerus -37.2178 -8.55496 -77.4106
rradius 26.6602
rwrist 7.52635
rhand -15.1751 12.0384
rfingers 7.12502
rthumb 10.9958 -17.6536
lclavicle -1.1937e-013 -1.27222e-014
lhumerus -29.9451 -8.15153 86.5255
lradius 35.3831
lwrist -6.3627
lhand -16.8167 23.2956
lfingers 7.12502
lthumb 9.41223 53.0654
rfemur -25.7754 -2.73225 19.3776
rtibia 23.8268
rfoot -1.64605 0.146444
rtoes -26.9971
lfemur 20.7791 -6.04874 -27.2574
ltibia 15.2975
lfoot 3.83825 -8.61694
ltoes -17.3104
